<svg xmlns="http://www.w3.org/2000/svg" viewBox="0 0 800 600">
  <defs>
    <radialGradient id="chbg" cx="50%" cy="45%" r="70%"><stop offset="0%" stop-color="#2e2822"/><stop offset="100%" stop-color="#1a1510"/></radialGradient>
    <radialGradient id="chbowl" cx="45%" cy="35%" r="65%"><stop offset="0%" stop-color="#c8763e"/><stop offset="100%" stop-color="#6e3818"/></radialGradient>
    <radialGradient id="chsoup" cx="45%" cy="40%" r="60%"><stop offset="0%" stop-color="#d0582a"/><stop offset="100%" stop-color="#8a2e12"/></radialGradient>
    <linearGradient id="chlamb" x1="0" y1="0" x2="0" y2="1"><stop offset="0%" stop-color="#a8683e"/><stop offset="100%" stop-color="#6a3818"/></linearGradient>
    <radialGradient id="chpea" cx="35%" cy="30%" r="70%"><stop offset="0%" stop-color="#f0d090"/><stop offset="100%" stop-color="#c09048"/></radialGradient>
  </defs>
  <rect width="800" height="600" fill="url(#chbg)"/>
  <g opacity="0.3">
    <path d="M90,470 Q70,440 95,420 Q120,440 90,470Z" fill="#3c8a34"/>
    <path d="M120,480 Q110,450 135,440 Q150,465 120,480Z" fill="#4a9a3c"/>
    <ellipse cx="700" cy="480" rx="30" ry="12" fill="#c8a868"/>
    <circle cx="660" cy="500" r="7" fill="url(#chpea)"/><circle cx="680" cy="510" r="7" fill="url(#chpea)"/>
  </g>
  <ellipse cx="400" cy="455" rx="300" ry="55" fill="#000" opacity="0.35"/>
  <ellipse cx="400" cy="320" rx="290" ry="150" fill="url(#chbowl)"/>
  <g stroke="#f0d8a8" stroke-width="3" fill="none" opacity="0.35">
    <ellipse cx="400" cy="320" rx="272" ry="137"/>
    <ellipse cx="400" cy="320" rx="245" ry="122" stroke-dasharray="6 10"/>
  </g>
  <ellipse cx="400" cy="315" rx="205" ry="102" fill="#4a2010" opacity="0.6"/>
  <ellipse cx="400" cy="318" rx="196" ry="96" fill="url(#chsoup)"/>
  <ellipse cx="370" cy="288" rx="110" ry="28" fill="#f08040" opacity="0.25"/>
  <g fill="#e88a30" opacity="0.5">
    <ellipse cx="300" cy="300" rx="10" ry="5"/><ellipse cx="480" cy="340" rx="8" ry="4"/><ellipse cx="420" cy="270" rx="7" ry="3"/>
  </g>
  <g fill="url(#chlamb)">
    <rect x="290" y="270" width="34" height="28" rx="7" transform="rotate(-10 307 284)"/>
    <rect x="420" y="290" width="36" height="30" rx="8" transform="rotate(12 438 305)"/>
    <rect x="350" y="340" width="32" height="26" rx="7" transform="rotate(6 366 353)"/>
    <rect x="500" y="300" width="30" height="26" rx="7" transform="rotate(-15 515 313)"/>
    <rect x="255" y="325" width="30" height="24" rx="6" transform="rotate(18 270 337)"/>
    <rect x="455" y="355" width="30" height="24" rx="6"/>
  </g>
  <g fill="#b8d070" stroke="#3a6a28" stroke-width="3">
    <rect x="360" y="280" width="22" height="20" rx="4" transform="rotate(20 371 290)"/>
    <rect x="470" y="262" width="22" height="20" rx="4" transform="rotate(-12 481 272)"/>
    <rect x="310" y="360" width="20" height="18" rx="4" transform="rotate(8 320 369)"/>
    <rect x="540" y="340" width="20" height="18" rx="4" transform="rotate(-25 550 349)"/>
  </g>
  <g fill="url(#chpea)">
    <circle cx="340" cy="310" r="9"/><circle cx="400" cy="325" r="9"/><circle cx="455" cy="330" r="8"/>
    <circle cx="530" cy="285" r="8"/><circle cx="280" cy="295" r="8"/><circle cx="410" cy="370" r="9"/>
    <circle cx="500" cy="380" r="8"/><circle cx="380" cy="260" r="8"/>
  </g>
  <g fill="#5aa040">
    <circle cx="325" cy="335" r="5"/><circle cx="440" cy="275" r="5"/><circle cx="395" cy="300" r="4.5"/>
    <circle cx="490" cy="320" r="5"/><circle cx="360" cy="385" r="4.5"/><circle cx="545" cy="315" r="4.5"/><circle cx="300" cy="350" r="4.5"/>
  </g>
  <g fill="#f0c878">
    <ellipse cx="315" cy="285" rx="7" ry="3" transform="rotate(30 315 285)"/>
    <ellipse cx="420" cy="345" rx="7" ry="3" transform="rotate(-20 420 345)"/>
    <ellipse cx="475" cy="300" rx="6" ry="3" transform="rotate(60 475 300)"/>
    <ellipse cx="380" cy="315" rx="6" ry="3" transform="rotate(-45 380 315)"/>
    <ellipse cx="520" cy="360" rx="6" ry="3" transform="rotate(15 520 360)"/>
    <ellipse cx="275" cy="315" rx="6" ry="3" transform="rotate(-60 275 315)"/>
  </g>
  <g fill="#3c8a34">
    <path d="M400,290 Q392,276 402,268 Q412,280 400,290Z"/>
    <path d="M340,295 Q328,286 334,275 Q348,282 340,295Z"/>
    <path d="M470,350 Q466,336 478,332 Q484,346 470,350Z"/>
    <path d="M430,380 Q420,370 428,360 Q440,370 430,380Z"/>
    <path d="M520,305 Q516,292 528,288 Q532,300 520,305Z"/>
  </g>
  <g stroke="#fff" stroke-width="3" fill="none" opacity="0.1" stroke-linecap="round">
    <path d="M370,200 Q355,170 375,145 T365,95"/>
    <path d="M440,195 Q460,165 440,135 T455,90"/>
  </g>
</svg>
