<svg xmlns="http://www.w3.org/2000/svg" viewBox="0 0 800 600">
  <defs>
    <radialGradient id="spmbg" cx="50%" cy="45%" r="70%"><stop offset="0%" stop-color="#2e2822"/><stop offset="100%" stop-color="#1a1510"/></radialGradient>
    <linearGradient id="spmbowl" x1="0" y1="0" x2="0" y2="1"><stop offset="0%" stop-color="#f4f0e8"/><stop offset="100%" stop-color="#a89e8c"/></linearGradient>
    <radialGradient id="spmsyr" cx="50%" cy="45%" r="60%"><stop offset="0%" stop-color="#f6d6a0"/><stop offset="100%" stop-color="#d49a58"/></radialGradient>
    <radialGradient id="spmpeach" cx="40%" cy="35%" r="70%"><stop offset="0%" stop-color="#fff0dc"/><stop offset="55%" stop-color="#f6c8a0"/><stop offset="100%" stop-color="#e08a6a"/></radialGradient>
  </defs>
  <rect width="800" height="600" fill="url(#spmbg)"/>
  <ellipse cx="400" cy="470" rx="290" ry="50" fill="#000" opacity="0.35"/>
  <g opacity="0.18">
    <circle cx="100" cy="150" r="38" fill="#f0b890"/><path d="M100,112 q10,-16 26,-14 q-10,14 -26,14z" fill="#3a8a3a"/>
    <path d="M660,110 l70,0 l0,40 l-70,0z" fill="#2a1408"/><path d="M660,110 l70,0 M683,110 v40 M706,110 v40" stroke="#4a2a14" stroke-width="2"/>
  </g>
  <path d="M110,280 q20,190 290,190 q270,0 290,-190z" fill="url(#spmbowl)"/>
  <ellipse cx="400" cy="280" rx="290" ry="80" fill="#e8e2d6"/>
  <ellipse cx="400" cy="284" rx="260" ry="66" fill="url(#spmsyr)"/>
  <g fill="url(#spmpeach)">
    <ellipse cx="270" cy="275" rx="52" ry="30" transform="rotate(-10 270 275)"/>
    <ellipse cx="380" cy="258" rx="54" ry="30" transform="rotate(6 380 258)"/>
    <ellipse cx="500" cy="270" rx="54" ry="30" transform="rotate(-6 500 270)"/>
    <ellipse cx="330" cy="305" rx="52" ry="28" transform="rotate(8 330 305)"/>
    <ellipse cx="455" cy="308" rx="52" ry="28" transform="rotate(-8 455 308)"/>
    <ellipse cx="580" cy="295" rx="44" ry="24" transform="rotate(10 580 295)"/>
    <ellipse cx="200" cy="300" rx="40" ry="22" transform="rotate(-6 200 300)"/>
  </g>
  <g fill="#fff" opacity="0.4">
    <ellipse cx="258" cy="266" rx="16" ry="5"/><ellipse cx="368" cy="249" rx="16" ry="5"/><ellipse cx="488" cy="261" rx="16" ry="5"/>
    <ellipse cx="320" cy="297" rx="14" ry="4"/><ellipse cx="445" cy="300" rx="14" ry="4"/>
  </g>
  <g fill="#2a140a">
    <rect x="300" y="262" width="16" height="7" rx="2" transform="rotate(20 308 265)"/>
    <rect x="420" y="250" width="18" height="7" rx="2" transform="rotate(-25 429 253)"/>
    <rect x="360" y="296" width="16" height="6" rx="2" transform="rotate(40 368 299)"/>
    <rect x="520" y="290" width="17" height="7" rx="2" transform="rotate(-10 528 293)"/>
    <rect x="240" y="292" width="15" height="6" rx="2" transform="rotate(15 247 295)"/>
    <rect x="470" y="280" width="14" height="6" rx="2" transform="rotate(60 477 283)"/>
    <rect x="400" y="316" width="15" height="6" rx="2" transform="rotate(-35 407 319)"/>
  </g>
  <g fill="#6a3a20" opacity="0.8">
    <rect x="302" y="262" width="12" height="2" transform="rotate(20 308 265)"/><rect x="422" y="250" width="14" height="2" transform="rotate(-25 429 253)"/>
  </g>
  <g fill="#3c9a3c">
    <path d="M400,236 q-24,-18 -8,-40 q24,14 8,40z"/><path d="M404,236 q24,-14 36,-38 q-30,0 -36,38z" fill="#2e8030"/>
    <path d="M350,280 q-4,-8 4,-10 q2,8 -4,10z"/><path d="M470,262 q-3,-8 4,-10 q2,8 -4,10z"/><path d="M540,300 q-4,-8 4,-10 q2,8 -4,10z"/>
    <path d="M280,300 q-4,-8 4,-10 q2,8 -4,10z"/><path d="M430,330 q-4,-8 4,-10 q2,8 -4,10z"/>
  </g>
  <path d="M130,300 q30,140 150,160" stroke="#fff" stroke-width="6" fill="none" opacity="0.25"/>
</svg>
