<svg xmlns="http://www.w3.org/2000/svg" viewBox="0 0 800 600">
  <defs>
    <radialGradient id="fabg" cx="50%" cy="45%" r="70%"><stop offset="0%" stop-color="#2e2822"/><stop offset="100%" stop-color="#1a1510"/></radialGradient>
    <radialGradient id="faplate" cx="45%" cy="40%" r="60%"><stop offset="0%" stop-color="#f2ede4"/><stop offset="100%" stop-color="#c4bcae"/></radialGradient>
    <linearGradient id="faside" x1="0" y1="0" x2="1" y2="0"><stop offset="0%" stop-color="#b8661e"/><stop offset="45%" stop-color="#e8983c"/><stop offset="100%" stop-color="#9a5418"/></linearGradient>
    <radialGradient id="fatop" cx="45%" cy="40%" r="60%"><stop offset="0%" stop-color="#f0a848"/><stop offset="70%" stop-color="#c8741e"/><stop offset="100%" stop-color="#8e4812"/></radialGradient>
    <radialGradient id="faapr" cx="35%" cy="35%" r="70%"><stop offset="0%" stop-color="#ffc060"/><stop offset="100%" stop-color="#d8701c"/></radialGradient>
  </defs>
  <rect width="800" height="600" fill="url(#fabg)"/>
  <g opacity="0.16" fill="#f0a040">
    <circle cx="110" cy="200" r="28"/><circle cx="160" cy="215" r="24"/><circle cx="690" cy="190" r="26"/>
  </g>
  <ellipse cx="400" cy="450" rx="310" ry="72" fill="#000" opacity="0.35"/>
  <ellipse cx="400" cy="405" rx="300" ry="100" fill="url(#faplate)"/>
  <ellipse cx="400" cy="408" rx="245" ry="76" fill="#f4e4b8"/>
  <ellipse cx="400" cy="408" rx="245" ry="76" fill="none" stroke="#e0c890" stroke-width="3" opacity="0.6"/>
  <ellipse cx="400" cy="398" rx="160" ry="44" fill="#000" opacity="0.2"/>
  <path d="M245,300 L245,380 Q400,440 555,380 L555,300Z" fill="url(#faside)"/>
  <ellipse cx="400" cy="300" rx="155" ry="46" fill="url(#fatop)"/>
  <path d="M250,305 Q260,340 262,360 Q268,336 280,318 Q300,352 304,332 Q320,322 340,336 Q352,360 358,340 Q400,350 440,340 Q448,366 456,338 Q480,326 500,334 Q510,356 520,322 Q540,318 552,305" fill="#9a4c10" opacity="0.55"/>
  <ellipse cx="380" cy="288" rx="80" ry="16" fill="#fff" opacity="0.18"/>
  <g stroke="#a85a18" stroke-width="2" opacity="0.35" fill="none">
    <path d="M270,340 Q400,380 530,340"/><path d="M262,362 Q400,402 540,362"/>
  </g>
  <g transform="translate(430,300)">
    <ellipse cx="-50" cy="-4" rx="30" ry="12" fill="url(#faapr)"/>
    <ellipse cx="10" cy="4" rx="30" ry="12" fill="url(#faapr)"/>
    <ellipse cx="-20" cy="-18" rx="26" ry="10" fill="url(#faapr)"/>
    <ellipse cx="-50" cy="-7" rx="10" ry="4" fill="#fff" opacity="0.3"/>
    <ellipse cx="10" cy="1" rx="10" ry="4" fill="#fff" opacity="0.3"/>
  </g>
  <g transform="translate(610,420)">
    <ellipse cx="0" cy="0" rx="32" ry="18" fill="url(#faapr)"/>
    <ellipse cx="4" cy="-2" rx="12" ry="7" fill="#b8581a"/>
    <path d="M-30,0 Q0,8 30,0" stroke="#c8641c" stroke-width="1.5" fill="none" opacity="0.6"/>
  </g>
  <g transform="translate(200,430)">
    <ellipse cx="0" cy="0" rx="28" ry="16" fill="url(#faapr)"/>
    <ellipse cx="-3" cy="-4" rx="9" ry="5" fill="#fff" opacity="0.3"/>
  </g>
  <g fill="#e8b860" opacity="0.8">
    <circle cx="300" cy="440" r="3"/><circle cx="480" cy="455" r="2.5"/><circle cx="530" cy="430" r="3"/><circle cx="270" cy="415" r="2"/>
  </g>
  <path d="M520,262 Q528,242 544,236 Q540,254 520,262Z" fill="#3c8a34"/>
</svg>
