<svg xmlns="http://www.w3.org/2000/svg" viewBox="0 0 800 600">
  <defs>
    <radialGradient id="csbg" cx="50%" cy="45%" r="70%"><stop offset="0%" stop-color="#2e2822"/><stop offset="100%" stop-color="#1a1510"/></radialGradient>
    <radialGradient id="csplate" cx="45%" cy="40%" r="65%"><stop offset="0%" stop-color="#f2ece2"/><stop offset="100%" stop-color="#aea696"/></radialGradient>
    <linearGradient id="cscrepe" x1="0" y1="0" x2="0" y2="1"><stop offset="0%" stop-color="#f2c472"/><stop offset="55%" stop-color="#d8963e"/><stop offset="100%" stop-color="#a8682a"/></linearGradient>
    <linearGradient id="csfill" x1="0" y1="0" x2="0" y2="1"><stop offset="0%" stop-color="#fff4cc"/><stop offset="100%" stop-color="#eed28a"/></linearGradient>
  </defs>
  <rect width="800" height="600" fill="url(#csbg)"/>
  <g opacity="0.2">
    <circle cx="110" cy="440" r="26" fill="#f4ecd8"/><circle cx="140" cy="455" r="22" fill="#e8dcc0"/>
    <path d="M660,110 L700,110 L700,140 Q720,160 720,210 L640,210 Q640,160 660,140Z" fill="#c89040"/>
  </g>
  <ellipse cx="400" cy="480" rx="330" ry="60" fill="#000" opacity="0.35"/>
  <ellipse cx="400" cy="400" rx="330" ry="125" fill="url(#csplate)"/>
  <ellipse cx="400" cy="398" rx="275" ry="98" fill="#e9e3d8"/>
  <g>
    <path d="M180,400 Q170,300 300,272 Q400,258 440,300 Q400,330 360,400 Q280,430 180,400Z" fill="#c07a30" opacity="0.4"/>
    <path d="M190,395 Q200,316 290,292 Q370,276 420,300 L380,398 Q280,428 190,395Z" fill="url(#csfill)"/>
    <path d="M180,405 Q180,300 300,262 Q370,244 420,285 Q360,300 330,340 Q300,390 180,405Z" fill="url(#cscrepe)"/>
    <path d="M200,380 Q220,300 310,275" stroke="#fff0c0" stroke-width="4" fill="none" opacity="0.4" stroke-linecap="round"/>
  </g>
  <g>
    <path d="M380,420 Q380,320 500,292 Q590,276 630,330 Q600,360 560,420 Q470,450 380,420Z" fill="#c07a30" opacity="0.4"/>
    <path d="M395,415 Q410,336 500,312 Q580,296 620,330 L580,418 Q480,446 395,415Z" fill="url(#csfill)"/>
    <path d="M385,425 Q385,322 500,285 Q575,266 625,310 Q560,322 530,362 Q500,410 385,425Z" fill="url(#cscrepe)"/>
    <path d="M405,400 Q425,322 510,298" stroke="#fff0c0" stroke-width="4" fill="none" opacity="0.4" stroke-linecap="round"/>
  </g>
  <g fill="#8a4a14" opacity="0.3">
    <circle cx="240" cy="360" r="8"/><circle cx="300" cy="310" r="7"/><circle cx="350" cy="300" r="5"/><circle cx="445" cy="380" r="8"/><circle cx="500" cy="330" r="7"/><circle cx="560" cy="305" r="5"/>
  </g>
  <g fill="#fffaf2" opacity="0.85">
    <circle cx="250" cy="330" r="2"/><circle cx="270" cy="345" r="1.6"/><circle cx="290" cy="320" r="1.8"/><circle cx="320" cy="300" r="1.6"/><circle cx="235" cy="370" r="1.8"/>
    <circle cx="305" cy="340" r="1.5"/><circle cx="340" cy="320" r="1.8"/><circle cx="455" cy="355" r="2"/><circle cx="480" cy="330" r="1.6"/><circle cx="510" cy="312" r="1.8"/>
    <circle cx="530" cy="340" r="1.6"/><circle cx="440" cy="395" r="1.8"/><circle cx="560" cy="320" r="1.5"/><circle cx="495" cy="360" r="1.8"/><circle cx="470" cy="380" r="1.5"/>
    <circle cx="610" cy="360" r="1.6"/><circle cx="200" cy="420" r="1.6"/><circle cx="620" cy="410" r="1.5"/>
  </g>
  <g fill="#fff" opacity="0.4"><ellipse cx="400" cy="440" rx="60" ry="6"/></g>
</svg>
