<svg xmlns="http://www.w3.org/2000/svg" viewBox="0 0 800 600">
  <defs>
    <radialGradient id="gebg" cx="50%" cy="45%" r="70%"><stop offset="0%" stop-color="#2e2822"/><stop offset="100%" stop-color="#1a1510"/></radialGradient>
    <radialGradient id="geplate" cx="45%" cy="40%" r="60%"><stop offset="0%" stop-color="#f4efe6"/><stop offset="100%" stop-color="#c4bcae"/></radialGradient>
    <radialGradient id="gesab" cx="45%" cy="40%" r="60%"><stop offset="0%" stop-color="#fae6a8"/><stop offset="75%" stop-color="#e8bc60"/><stop offset="100%" stop-color="#c08a36"/></radialGradient>
    <radialGradient id="gekiwi" cx="50%" cy="50%" r="50%"><stop offset="0%" stop-color="#f2f0c0"/><stop offset="30%" stop-color="#9cc83a"/><stop offset="100%" stop-color="#5a8a1c"/></radialGradient>
    <linearGradient id="gemango" x1="0" y1="0" x2="0" y2="1"><stop offset="0%" stop-color="#ffb030"/><stop offset="100%" stop-color="#e07010"/></linearGradient>
    <linearGradient id="gepin" x1="0" y1="0" x2="0" y2="1"><stop offset="0%" stop-color="#ffe060"/><stop offset="100%" stop-color="#e0a820"/></linearGradient>
  </defs>
  <rect width="800" height="600" fill="url(#gebg)"/>
  <g opacity="0.18">
    <circle cx="110" cy="210" r="32" fill="#f08a20"/><circle cx="690" cy="215" r="22" fill="#6aa02a"/><circle cx="720" cy="240" r="18" fill="#6aa02a"/>
  </g>
  <ellipse cx="400" cy="450" rx="310" ry="70" fill="#000" opacity="0.35"/>
  <ellipse cx="400" cy="400" rx="300" ry="110" fill="url(#geplate)"/>
  <ellipse cx="400" cy="396" rx="230" ry="80" fill="#e6dfd2"/>
  <g fill="url(#gepin)" stroke="#c89020" stroke-width="1.5">
    <path d="M190,390 Q240,350 300,356 L300,378 Q246,378 206,408Z"/>
    <path d="M500,356 Q560,350 610,390 L594,408 Q554,378 500,378Z"/>
  </g>
  <g fill="url(#gemango)">
    <path d="M300,420 Q350,440 400,436 Q390,452 340,448 Q300,440 300,420Z"/>
    <path d="M400,436 Q450,440 500,420 Q500,440 460,448 Q410,452 400,436Z"/>
    <path d="M270,360 Q310,330 350,340 Q320,356 290,378Z"/>
  </g>
  <ellipse cx="400" cy="385" rx="175" ry="50" fill="url(#gesab)" opacity="0.8"/>
  <g fill="#9a5418" opacity="0.45">
    <ellipse cx="320" cy="370" rx="36" ry="10"/><ellipse cx="470" cy="400" rx="42" ry="12"/><ellipse cx="410" cy="352" rx="28" ry="8"/><ellipse cx="350" cy="410" rx="24" ry="7"/>
  </g>
  <g fill="#6a320a" opacity="0.5">
    <circle cx="360" cy="385" r="4"/><circle cx="440" cy="370" r="5"/><circle cx="500" cy="385" r="3"/><circle cx="300" cy="392" r="3"/>
  </g>
  <circle cx="330" cy="380" r="22" fill="url(#gekiwi)" opacity="0.85"/>
  <circle cx="480" cy="372" r="20" fill="url(#gekiwi)" opacity="0.85"/>
  <g fill="#1a1a10" opacity="0.8">
    <circle cx="324" cy="376" r="1.5"/><circle cx="336" cy="376" r="1.5"/><circle cx="330" cy="388" r="1.5"/>
    <circle cx="474" cy="368" r="1.5"/><circle cx="486" cy="368" r="1.5"/><circle cx="480" cy="380" r="1.5"/>
  </g>
  <g fill="#fbf6ea" stroke="#d8ccb2" stroke-width="1">
    <ellipse cx="405" cy="390" rx="15" ry="12"/><ellipse cx="380" cy="360" rx="13" ry="10"/><ellipse cx="530" cy="395" rx="13" ry="10"/><ellipse cx="270" cy="400" rx="12" ry="9"/>
  </g>
  <g fill="none" stroke-width="2.5" stroke-linecap="round">
    <path d="M360,345 q10,-8 22,-2" stroke="#f08a1c"/><path d="M430,350 q12,-6 20,2" stroke="#6aa02a"/>
    <path d="M395,340 q8,-10 18,-6" stroke="#f08a1c"/><path d="M460,388 q10,-6 18,0" stroke="#6aa02a"/>
    <path d="M345,402 q10,6 20,0" stroke="#f08a1c"/>
  </g>
  <ellipse cx="370" cy="360" rx="80" ry="12" fill="#fff" opacity="0.2"/>
  <g transform="translate(640,400)" opacity="0.5">
    <ellipse cx="0" cy="0" rx="26" ry="8" fill="#d8b070"/><ellipse cx="14" cy="14" rx="24" ry="7" fill="#c89a58"/>
  </g>
</svg>
