<svg xmlns="http://www.w3.org/2000/svg" viewBox="0 0 800 600">
  <defs>
    <radialGradient id="gdsbg" cx="50%" cy="40%" r="70%"><stop offset="0%" stop-color="#2e2822"/><stop offset="100%" stop-color="#1a1510"/></radialGradient>
    <radialGradient id="gdsplate" cx="38%" cy="32%" r="65%"><stop offset="0%" stop-color="#f5f0e8"/><stop offset="100%" stop-color="#ddd5c8"/></radialGradient>
    <radialGradient id="gdscake" cx="35%" cy="30%" r="60%"><stop offset="0%" stop-color="#ede0b0"/><stop offset="100%" stop-color="#c8b878"/></radialGradient>
    <radialGradient id="gdscaramel" cx="38%" cy="38%" r="62%"><stop offset="0%" stop-color="#c87820"/><stop offset="100%" stop-color="#7a3a05"/></radialGradient>
    <linearGradient id="gdsdrip" x1="0%" y1="0%" x2="0%" y2="100%"><stop offset="0%" stop-color="#a86010"/><stop offset="100%" stop-color="#6b3a05" stop-opacity="0.4"/></linearGradient>
  </defs>
  <rect width="800" height="600" fill="url(#gdsbg)"/>
  <!-- Table surface -->
  <ellipse cx="400" cy="530" rx="360" ry="65" fill="#1c1610" opacity="0.55"/>
  <!-- Plate shadow -->
  <ellipse cx="405" cy="418" rx="205" ry="55" fill="#0d0a07" opacity="0.45"/>
  <!-- Plate -->
  <ellipse cx="400" cy="400" rx="198" ry="54" fill="url(#gdsplate)"/>
  <ellipse cx="400" cy="395" rx="178" ry="46" fill="#faf6f0"/>
  <!-- Caramel pool on plate -->
  <ellipse cx="400" cy="372" rx="118" ry="28" fill="#7a3a05" opacity="0.38"/>
  <!-- Cake body sides -->
  <rect x="282" y="248" width="236" height="128" rx="6" fill="url(#gdscake)"/>
  <!-- Caramel drips down sides -->
  <path d="M305,248 Q300,278 296,308 Q292,332 290,354 Q298,362 304,354 Q306,332 310,308 Q314,280 308,248Z" fill="url(#gdsdrip)" opacity="0.72"/>
  <path d="M348,248 Q345,282 343,312 Q341,334 339,352 Q347,360 353,352 Q354,332 356,308 Q357,282 351,248Z" fill="url(#gdsdrip)" opacity="0.60"/>
  <path d="M442,248 Q445,280 448,310 Q451,334 453,354 Q461,360 465,352 Q462,330 459,308 Q456,282 444,248Z" fill="url(#gdsdrip)" opacity="0.60"/>
  <path d="M485,248 Q492,280 495,312 Q498,336 500,356 Q508,362 512,350 Q508,328 504,308 Q500,280 487,248Z" fill="url(#gdsdrip)" opacity="0.72"/>
  <!-- Cake top -->
  <ellipse cx="400" cy="248" rx="118" ry="32" fill="url(#gdscaramel)"/>
  <!-- Caramel sheen -->
  <ellipse cx="376" cy="240" rx="52" ry="13" fill="#d88820" opacity="0.28"/>
  <ellipse cx="360" cy="236" rx="22" ry="6" fill="white" opacity="0.10"/>
  <!-- Caramel pool gloss -->
  <ellipse cx="340" cy="392" rx="30" ry="9" fill="white" opacity="0.07"/>
</svg>
