<svg xmlns="http://www.w3.org/2000/svg" viewBox="0 0 800 600">
  <defs>
    <radialGradient id="rrbg" cx="50%" cy="45%" r="70%"><stop offset="0%" stop-color="#2e2822"/><stop offset="100%" stop-color="#1a1510"/></radialGradient>
    <radialGradient id="rrplate" cx="50%" cy="40%" r="55%"><stop offset="0%" stop-color="#f5f0e8"/><stop offset="100%" stop-color="#ddd5c5"/></radialGradient>
    <radialGradient id="rrpasta" cx="50%" cy="30%" r="60%"><stop offset="0%" stop-color="#f8e8b0"/><stop offset="100%" stop-color="#d4b060"/></radialGradient>
  </defs>
  <rect width="800" height="600" fill="url(#rrbg)"/>
  <!-- Shadow under plate -->
  <ellipse cx="400" cy="490" rx="210" ry="28" fill="#0d0a07" opacity="0.5"/>
  <!-- Plate -->
  <ellipse cx="400" cy="390" rx="210" ry="110" fill="url(#rrplate)"/>
  <ellipse cx="400" cy="390" rx="200" ry="102" fill="none" stroke="#c8bfaa" stroke-width="1.5" opacity="0.5"/>
  <!-- Butter sauce pool -->
  <ellipse cx="400" cy="415" rx="155" ry="55" fill="#e8c870" opacity="0.35"/>
  <!-- Ravioli pieces - bottom row -->
  <g fill="url(#rrpasta)" stroke="#c8a040" stroke-width="1">
    <!-- Raviolo 1 -->
    <rect x="255" y="390" width="72" height="50" rx="10" fill="#f0d880" stroke="#c8a030" stroke-width="1.2"/>
    <ellipse cx="291" cy="415" rx="24" ry="16" fill="#6a9840" opacity="0.55"/>
    <!-- Crimped edges -->
    <path d="M255,400 Q259,395 263,400 Q267,395 271,400 Q275,395 279,400 Q283,395 287,400" fill="none" stroke="#c8a030" stroke-width="1"/>
    <path d="M255,430 Q259,435 263,430 Q267,435 271,430 Q275,435 279,430 Q283,435 287,430" fill="none" stroke="#c8a030" stroke-width="1"/>
    <!-- Raviolo 2 -->
    <rect x="345" y="382" width="72" height="50" rx="10" fill="#eed878" stroke="#c0982a" stroke-width="1.2"/>
    <ellipse cx="381" cy="407" rx="24" ry="16" fill="#5a8830" opacity="0.55"/>
    <path d="M345,392 Q349,387 353,392 Q357,387 361,392 Q365,387 369,392 Q373,387 377,392" fill="none" stroke="#c0982a" stroke-width="1"/>
    <path d="M345,422 Q349,427 353,422 Q357,427 361,422 Q365,427 369,422 Q373,427 377,422" fill="none" stroke="#c0982a" stroke-width="1"/>
    <!-- Raviolo 3 -->
    <rect x="435" y="390" width="72" height="50" rx="10" fill="#f0d880" stroke="#c8a030" stroke-width="1.2"/>
    <ellipse cx="471" cy="415" rx="24" ry="16" fill="#6a9840" opacity="0.55"/>
    <path d="M435,400 Q439,395 443,400 Q447,395 451,400 Q455,395 459,400 Q463,395 467,400" fill="none" stroke="#c8a030" stroke-width="1"/>
    <path d="M435,430 Q439,435 443,430 Q447,435 451,430 Q455,435 459,430 Q463,435 467,430" fill="none" stroke="#c8a030" stroke-width="1"/>
  </g>
  <!-- Ravioli pieces - top row -->
  <g fill="url(#rrpasta)" stroke="#c8a040" stroke-width="1">
    <!-- Raviolo 4 -->
    <rect x="300" y="340" width="72" height="50" rx="10" fill="#f4e088" stroke="#c8a030" stroke-width="1.2"/>
    <ellipse cx="336" cy="365" rx="24" ry="16" fill="#5e9035" opacity="0.55"/>
    <path d="M300,350 Q304,345 308,350 Q312,345 316,350 Q320,345 324,350 Q328,345 332,350" fill="none" stroke="#c8a030" stroke-width="1"/>
    <path d="M300,380 Q304,385 308,380 Q312,385 316,380 Q320,385 324,380 Q328,385 332,380" fill="none" stroke="#c8a030" stroke-width="1"/>
    <!-- Raviolo 5 -->
    <rect x="392" y="345" width="72" height="50" rx="10" fill="#eed878" stroke="#c09828" stroke-width="1.2"/>
    <ellipse cx="428" cy="370" rx="24" ry="16" fill="#6a9840" opacity="0.55"/>
    <path d="M392,355 Q396,350 400,355 Q404,350 408,355 Q412,350 416,355 Q420,350 424,355" fill="none" stroke="#c09828" stroke-width="1"/>
    <path d="M392,385 Q396,390 400,385 Q404,390 408,385 Q412,390 416,385 Q420,390 424,385" fill="none" stroke="#c09828" stroke-width="1"/>
  </g>
  <!-- Sage leaves -->
  <g fill="#4a7828" opacity="0.8">
    <ellipse cx="295" cy="360" rx="18" ry="7" transform="rotate(-25,295,360)"/>
    <ellipse cx="475" cy="378" rx="16" ry="6" transform="rotate(20,475,378)"/>
    <ellipse cx="360" cy="450" rx="14" ry="5" transform="rotate(-10,360,450)"/>
  </g>
  <!-- Butter drizzle highlights -->
  <g fill="#f5d040" opacity="0.22">
    <ellipse cx="340" cy="430" rx="30" ry="8"/>
    <ellipse cx="450" cy="438" rx="25" ry="6"/>
  </g>
  <!-- Pecorino shavings -->
  <g fill="#f8f0d8" opacity="0.65">
    <ellipse cx="320" cy="345" rx="9" ry="4" transform="rotate(30,320,345)"/>
    <ellipse cx="455" cy="352" rx="8" ry="3" transform="rotate(-20,455,352)"/>
    <ellipse cx="390" cy="448" rx="10" ry="3.5" transform="rotate(10,390,448)"/>
  </g>
  <!-- Steam -->
  <g stroke="#f5f0e0" stroke-width="1.5" fill="none" opacity="0.10">
    <path d="M330,325 Q325,305 335,285 Q345,265 335,245"/>
    <path d="M400,315 Q395,295 405,275 Q415,255 405,235"/>
    <path d="M460,325 Q455,305 465,285 Q475,265 465,245"/>
  </g>
</svg>
