<svg xmlns="http://www.w3.org/2000/svg" viewBox="0 0 800 600">
  <defs>
    <radialGradient id="shrbg" cx="50%" cy="45%" r="70%"><stop offset="0%" stop-color="#2e2822"/><stop offset="100%" stop-color="#1a1510"/></radialGradient>
    <linearGradient id="shrbowl" x1="0" y1="0" x2="0" y2="1"><stop offset="0%" stop-color="#f0ebe2"/><stop offset="100%" stop-color="#a89e8c"/></linearGradient>
    <radialGradient id="shrrice" cx="45%" cy="40%" r="65%"><stop offset="0%" stop-color="#f6f2e8"/><stop offset="100%" stop-color="#d6ccb8"/></radialGradient>
    <pattern id="shrgrain" width="24" height="16" patternUnits="userSpaceOnUse">
      <g fill="#fffdf6" stroke="#cfc4ae" stroke-width="0.6"><ellipse cx="6" cy="5" rx="4" ry="1.8" transform="rotate(20 6 5)"/><ellipse cx="17" cy="12" rx="4" ry="1.8" transform="rotate(-25 17 12)"/></g>
    </pattern>
    <linearGradient id="shrfish" x1="0" y1="0" x2="0" y2="1"><stop offset="0%" stop-color="#f6c878"/><stop offset="100%" stop-color="#d8903e"/></linearGradient>
  </defs>
  <rect width="800" height="600" fill="url(#shrbg)"/>
  <g opacity="0.12" fill="#e8d0a0"><ellipse cx="100" cy="140" rx="34" ry="22"/><path d="M670,120 q40,-30 80,0 q-40,30 -80,0z"/></g>
  <ellipse cx="400" cy="480" rx="280" ry="45" fill="#000" opacity="0.35"/>
  <path d="M130,290 Q150,470 400,480 Q650,470 670,290Z" fill="url(#shrbowl)"/>
  <ellipse cx="400" cy="290" rx="270" ry="95" fill="#f6f2ea"/>
  <ellipse cx="400" cy="292" rx="245" ry="80" fill="url(#shrrice)"/>
  <ellipse cx="400" cy="292" rx="245" ry="80" fill="url(#shrgrain)"/>
  <g fill="none" stroke-width="6" stroke-linecap="round" stroke="#8a2a6a">
    <path d="M200,290 q20,-12 40,0"/><path d="M250,320 q22,-10 42,4"/><path d="M560,260 q20,-12 38,0"/><path d="M580,310 q18,-10 36,2"/>
    <path d="M300,240 q18,-10 36,2"/><path d="M470,340 q20,-10 40,2"/><path d="M330,350 q20,-8 38,4"/><path d="M500,235 q18,-10 34,2"/>
  </g>
  <g fill="none" stroke-width="4" stroke-linecap="round" stroke="#b44a8e">
    <path d="M225,270 q16,-8 32,2"/><path d="M540,290 q16,-8 30,2"/><path d="M420,355 q16,-8 30,2"/><path d="M270,345 q14,-8 28,2"/>
  </g>
  <g fill="url(#shrfish)">
    <path d="M330,270 q20,-18 48,-6 q6,18 -14,26 q-26,4 -34,-20z"/>
    <path d="M400,250 q24,-14 50,0 q2,20 -20,24 q-26,0 -30,-24z"/>
    <path d="M440,290 q22,-16 50,-2 q4,20 -18,26 q-28,2 -32,-24z"/>
    <path d="M360,305 q22,-14 46,0 q2,18 -18,22 q-24,0 -28,-22z"/>
    <path d="M300,300 q16,-12 36,-2 q2,14 -14,18 q-20,0 -22,-16z"/>
    <path d="M490,262 q16,-12 34,-2 q2,14 -14,18 q-18,0 -20,-16z"/>
  </g>
  <g stroke="#f8e2b8" stroke-width="1.5" opacity="0.7">
    <path d="M345,272 l18,4"/><path d="M415,252 l20,4"/><path d="M455,292 l20,4"/><path d="M375,306 l18,4"/>
  </g>
  <g fill="#4a9a3a">
    <circle cx="350" cy="290" r="3"/><circle cx="430" cy="275" r="3"/><circle cx="470" cy="310" r="3"/><circle cx="390" cy="325" r="2.5"/>
    <circle cx="280" cy="280" r="2.5"/><circle cx="520" cy="285" r="2.5"/><circle cx="410" cy="240" r="2.5"/><circle cx="320" cy="325" r="2.5"/>
  </g>
</svg>
