<svg xmlns="http://www.w3.org/2000/svg" viewBox="0 0 800 600">
  <defs>
    <radialGradient id="tscbg" cx="50%" cy="45%" r="70%"><stop offset="0%" stop-color="#2e2822"/><stop offset="100%" stop-color="#1a1510"/></radialGradient>
    <radialGradient id="tscplate" cx="45%" cy="40%" r="65%"><stop offset="0%" stop-color="#f4efe6"/><stop offset="100%" stop-color="#c4baa8"/></radialGradient>
    <radialGradient id="tsctom" cx="35%" cy="35%" r="70%"><stop offset="0%" stop-color="#f25a3a"/><stop offset="100%" stop-color="#9e1e12"/></radialGradient>
    <radialGradient id="tscleaf" cx="40%" cy="35%" r="70%"><stop offset="0%" stop-color="#a8d466"/><stop offset="100%" stop-color="#4e8a2c"/></radialGradient>
    <radialGradient id="tscfill" cx="50%" cy="40%" r="60%"><stop offset="0%" stop-color="#fbf2d4"/><stop offset="100%" stop-color="#e2cf98"/></radialGradient>
  <g id="tsct">
    <ellipse cx="0" cy="0" rx="72" ry="62" fill="url(#tsctom)"/>
    <ellipse cx="0" cy="-34" rx="54" ry="16" fill="#8e1a10"/>
    <ellipse cx="0" cy="-37" rx="48" ry="13" fill="url(#tscfill)"/>
    <g fill="#f4c21c"><circle cx="-24" cy="-40" r="4"/><circle cx="10" cy="-36" r="4"/><circle cx="28" cy="-41" r="3.5"/></g>
    <g fill="#5aa032"><circle cx="-10" cy="-43" r="4"/><circle cx="20" cy="-33" r="4"/><circle cx="-30" cy="-33" r="3.5"/></g>
    <g fill="#f4ead6" stroke="#b8a07a" stroke-width="1"><rect x="-4" y="-44" width="9" height="7" rx="2"/><rect x="-22" y="-35" width="8" height="6" rx="2"/></g>
    <path d="M-18,-48 a10,10 0 1 1 12,10" fill="none" stroke="#f49a8a" stroke-width="6" stroke-linecap="round"/>
    <path d="M6,-50 a9,9 0 1 1 11,9" fill="none" stroke="#f49a8a" stroke-width="6" stroke-linecap="round"/>
    <g fill="#3c8a34"><circle cx="-6" cy="-52" r="2"/><circle cx="14" cy="-46" r="2"/><circle cx="-26" cy="-46" r="2"/></g>
    <ellipse cx="-30" cy="5" rx="14" ry="22" fill="#fff" opacity="0.18" transform="rotate(20 -30 5)"/>
  </g>
  </defs>
  <rect width="800" height="600" fill="url(#tscbg)"/>
  <g opacity="0.12"><circle cx="100" cy="140" r="32" fill="#e04030"/><path d="M680,170 q30,-60 60,0z" fill="#6a9a3a"/></g>
  <ellipse cx="400" cy="470" rx="330" ry="55" fill="#000" opacity="0.35"/>
  <ellipse cx="400" cy="340" rx="330" ry="150" fill="url(#tscplate)"/>
  <ellipse cx="400" cy="335" rx="285" ry="122" fill="#ebe4d8"/>
  <g fill="url(#tscleaf)">
    <path d="M160,360 q60,-90 150,-40 q-50,70 -150,40z"/><path d="M490,320 q90,-50 150,40 q-100,30 -150,-40z"/><path d="M290,400 q110,-60 220,0 q-110,50 -220,0z"/>
  </g>
  <use href="#tsct" transform="translate(245 325) scale(0.85)"/>
  <use href="#tsct" transform="translate(555 310) scale(0.85)"/>
  <use href="#tsct" transform="translate(400 380)"/>
  <g transform="translate(470 290) rotate(18)">
    <ellipse cx="0" cy="0" rx="46" ry="18" fill="url(#tsctom)"/>
    <path d="M-12,-14 l12,6 l12,-6 l-6,10 l10,4 h-32 l10,-4z" fill="#3e7a28"/>
    <rect x="-3" y="-22" width="6" height="12" rx="3" fill="#4e8a2c"/>
  </g>
</svg>
